<svg xmlns="http://www.w3.org/2000/svg" viewBox="0 0 96 96" role="img" aria-labelledby="title desc">
  <title id="title">KerisLab mark</title>
  <desc id="desc">Simplified KerisLab brand mark with a wavy keris blade, guard, hilt, and shield.</desc>
  <defs>
    <linearGradient id="mark-bg" x1="16" y1="10" x2="80" y2="86" gradientUnits="userSpaceOnUse">
      <stop offset="0" stop-color="#FFFFFF"/>
      <stop offset="1" stop-color="#EAF6FF"/>
    </linearGradient>
    <linearGradient id="mark-blade" x1="38" y1="16" x2="58" y2="68" gradientUnits="userSpaceOnUse">
      <stop offset="0" stop-color="#0071E3"/>
      <stop offset="0.55" stop-color="#00A7D1"/>
      <stop offset="1" stop-color="#5856D6"/>
    </linearGradient>
    <filter id="mark-shadow" x="-20%" y="-20%" width="140%" height="150%" color-interpolation-filters="sRGB">
      <feDropShadow dx="0" dy="8" stdDeviation="10" flood-color="#1D1D1F" flood-opacity="0.12"/>
    </filter>
  </defs>
  <rect x="8" y="8" width="80" height="80" rx="22" fill="url(#mark-bg)" filter="url(#mark-shadow)"/>
  <rect x="8.5" y="8.5" width="79" height="79" rx="21.5" fill="none" stroke="#FFFFFF" stroke-opacity="0.9"/>
  <path d="M48 17c12 6.5 22 7.8 22 7.8v17.7C70 59 61.2 70 48 77c-13.2-7-22-18-22-34.5V24.8S36 23.5 48 17Z" fill="#FFFFFF" fill-opacity="0.72" stroke="#D2D2D7"/>
  <path d="M48 22c6.6 9.7 5.8 15.5 2 22.4-3.2 5.9-2.8 11 1.3 16.9 3.2 4.7 2.8 9.2-1.3 13.7h-4c-4.1-4.5-4.5-9-1.3-13.7 4.1-5.9 4.5-11 1.3-16.9-3.8-6.9-4.6-12.7 2-22.4Z" fill="url(#mark-blade)"/>
  <path d="M48 27c-3.3 7-2.1 12.8 1.2 18.8 2.9 5.2 2.5 10.8-1.2 16.2" fill="none" stroke="#FFFFFF" stroke-width="2.6" stroke-linecap="round" opacity="0.82"/>
  <path d="M33 66c6-4.5 10.9-6.4 15-6.4S57 61.5 63 66c-5.7 2.5-10.7 3.7-15 3.7S38.7 68.5 33 66Z" fill="#1D1D1F"/>
  <path d="M41 70h14v7.4c0 4.8-2.9 8.4-7 10.6-4.1-2.2-7-5.8-7-10.6V70Z" fill="#1D1D1F"/>
</svg>
