<svg xmlns="http://www.w3.org/2000/svg" viewBox="0 0 1200 760" role="img" aria-labelledby="title desc">
  <title id="title">KerisLab Mission Control panel</title>
  <desc id="desc">A polished product illustration showing KerisLab's Mission Control cockpit with timeline, browser, events, approvals, and findings.</desc>
  <defs>
    <linearGradient id="panel-bg" x1="0" y1="0" x2="1200" y2="760" gradientUnits="userSpaceOnUse">
      <stop offset="0" stop-color="#FFFFFF"/>
      <stop offset="1" stop-color="#F5F5F7"/>
    </linearGradient>
    <linearGradient id="panel-accent" x1="260" y1="90" x2="960" y2="680" gradientUnits="userSpaceOnUse">
      <stop offset="0" stop-color="#0071E3"/>
      <stop offset="0.52" stop-color="#00A7D1"/>
      <stop offset="1" stop-color="#5856D6"/>
    </linearGradient>
    <filter id="panel-shadow" x="-10%" y="-10%" width="120%" height="130%" color-interpolation-filters="sRGB">
      <feDropShadow dx="0" dy="24" stdDeviation="28" flood-color="#1D1D1F" flood-opacity="0.14"/>
      <feDropShadow dx="0" dy="4" stdDeviation="6" flood-color="#1D1D1F" flood-opacity="0.08"/>
    </filter>
  </defs>
  <rect width="1200" height="760" rx="44" fill="url(#panel-bg)"/>
  <rect x="110" y="78" width="980" height="600" rx="32" fill="#FFFFFF" stroke="#D2D2D7" filter="url(#panel-shadow)"/>
  <rect x="110" y="78" width="980" height="68" rx="32" fill="#FFFFFF" fill-opacity="0.78"/>
  <path d="M110 146h980" stroke="#D2D2D7"/>
  <circle cx="148" cy="112" r="7" fill="#FF3B30"/>
  <circle cx="172" cy="112" r="7" fill="#FFCC00"/>
  <circle cx="196" cy="112" r="7" fill="#34C759"/>
  <rect x="232" y="98" width="190" height="28" rx="14" fill="#F5F5F7"/>
  <rect x="906" y="98" width="128" height="28" rx="14" fill="#F5F5F7"/>
  <rect x="138" y="174" width="190" height="474" rx="22" fill="#F8F8FA" stroke="#D2D2D7"/>
  <rect x="354" y="174" width="470" height="300" rx="22" fill="#F8F8FA" stroke="#D2D2D7"/>
  <rect x="354" y="500" width="470" height="148" rx="22" fill="#F8F8FA" stroke="#D2D2D7"/>
  <rect x="850" y="174" width="212" height="474" rx="22" fill="#F8F8FA" stroke="#D2D2D7"/>
  <path d="M178 236h100M178 298h86M178 360h112M178 422h72M178 484h98" stroke="#6E6E73" stroke-opacity="0.34" stroke-width="10" stroke-linecap="round"/>
  <circle cx="162" cy="236" r="7" fill="#0071E3"/>
  <circle cx="162" cy="298" r="7" fill="#00A7D1"/>
  <circle cx="162" cy="360" r="7" fill="#34C759"/>
  <circle cx="162" cy="422" r="7" fill="#FFCC00"/>
  <circle cx="162" cy="484" r="7" fill="#D2D2D7"/>
  <rect x="386" y="206" width="406" height="214" rx="18" fill="#FFFFFF" stroke="#D2D2D7"/>
  <path d="M414 372c62-70 129-102 203-95 68 7 119 39 147 95" fill="none" stroke="url(#panel-accent)" stroke-width="8" stroke-linecap="round"/>
  <path d="M480 360c26-32 58-45 96-39 34 6 62 20 84 39" fill="none" stroke="#1D1D1F" stroke-opacity="0.18" stroke-width="6" stroke-linecap="round"/>
  <circle cx="414" cy="372" r="12" fill="#0071E3"/>
  <circle cx="764" cy="372" r="12" fill="#00A7D1"/>
  <rect x="390" y="532" width="170" height="16" rx="8" fill="#1D1D1F" fill-opacity="0.18"/>
  <rect x="390" y="566" width="360" height="12" rx="6" fill="#6E6E73" fill-opacity="0.22"/>
  <rect x="390" y="594" width="300" height="12" rx="6" fill="#6E6E73" fill-opacity="0.16"/>
  <rect x="878" y="208" width="154" height="72" rx="16" fill="#FFFFFF" stroke="#D2D2D7"/>
  <rect x="878" y="304" width="154" height="72" rx="16" fill="#FFFFFF" stroke="#D2D2D7"/>
  <rect x="878" y="400" width="154" height="72" rx="16" fill="#FFFFFF" stroke="#D2D2D7"/>
  <rect x="900" y="232" width="94" height="10" rx="5" fill="#1D1D1F" fill-opacity="0.18"/>
  <rect x="900" y="328" width="72" height="10" rx="5" fill="#1D1D1F" fill-opacity="0.18"/>
  <rect x="900" y="424" width="104" height="10" rx="5" fill="#1D1D1F" fill-opacity="0.18"/>
  <circle cx="1008" cy="238" r="9" fill="#34C759"/>
  <circle cx="1008" cy="334" r="9" fill="#FFCC00"/>
  <circle cx="1008" cy="430" r="9" fill="#FF3B30"/>
</svg>
